<?xml version="1.0" standalone="no"?>
<!DOCTYPE svg PUBLIC "-//W3C//DTD SVG 20010904//EN"
 "http://www.w3.org/TR/2001/REC-SVG-20010904/DTD/svg10.dtd">
<svg version="1.0" xmlns="http://www.w3.org/2000/svg"
 width="240.000000pt" height="240.000000pt" viewBox="0 0 240.000000 240.000000"
 preserveAspectRatio="xMidYMid meet">

<g transform="translate(0.000000,240.000000) scale(0.100000,-0.100000)"
fill="#000000" stroke="none">
<path d="M2 2373 l3 -28 427 -3 428 -2 0 -50 c0 -49 1 -50 30 -50 29 0 30 1
30 50 l0 50 428 0 c236 0 431 2 434 5 3 3 3 17 0 30 l-4 25 -890 0 -889 0 3
-27z"/>
<path d="M530 1201 l0 -931 30 0 30 0 0 906 0 905 463 -3 462 -4 97 -26 c390
-106 671 -440 717 -853 57 -509 -231 -965 -696 -1100 -114 -34 -166 -37 -668
-38 l-420 -2 -3 -27 -3 -28 421 0 c232 0 464 5 517 11 309 34 578 200 751 464
198 301 225 729 67 1062 -132 280 -373 482 -673 565 -73 20 -103 22 -584 25
l-508 4 0 -930z"/>
<path d="M860 1126 l0 -854 30 -4 30 -5 0 859 0 858 -30 0 -30 0 0 -854z"/>
</g>
</svg>
